<svg xmlns="http://www.w3.org/2000/svg" viewBox="0 0 124.17 185.77"><defs><style>.cls-1{fill:#c97a09;}.cls-2{fill:#f2985a;}.cls-3{fill:#ffaa71;}.cls-4{fill:#e58645;}.cls-5{fill:#fff0e9;}.cls-6{fill:#53b1e5;}.cls-7{fill:#eac8bb;}.cls-8{fill:#ea7f36;}.cls-9{fill:#f47f56;}.cls-10{fill:#86d856;}.cls-11{opacity:0.2;}.cls-12{fill:#33d9ff;}.cls-13{fill:#fff;}.cls-14{fill:#381607;}</style></defs><title>Asset 11</title><g id="Layer_2" data-name="Layer 2"><g id="OBJECTS"><path class="cls-1" d="M94.48,91.72c-.55-.86-1.15-1.7-1.68-2.58A24,24,0,0,1,91,85.44a9.27,9.27,0,0,0-.56-1.2,3.93,3.93,0,0,0-1.05-1.17,1.81,1.81,0,0,0-1.57-.36,4.85,4.85,0,0,0-2.39,1.42A22.94,22.94,0,0,0,83,87.05a35.52,35.52,0,0,0-3.28,5.82,3.32,3.32,0,0,0-.33,1.44A12,12,0,0,0,80,98a10.9,10.9,0,0,0,2,3.59,9.89,9.89,0,0,0,3,2.45,6,6,0,0,0,2.62.66,1.79,1.79,0,0,0,1.86-1.32,4.16,4.16,0,0,0,.2-1.74A8.17,8.17,0,0,0,89,99.05c-.26-.58-.55-1.16-.83-1.73l.09-.14a3.66,3.66,0,0,1,.45.19,10.75,10.75,0,0,0,2.26,1A4.64,4.64,0,0,0,94.54,98a2.73,2.73,0,0,0,1.52-2.22,4,4,0,0,0-.54-2.36A18.13,18.13,0,0,0,94.48,91.72Z"/><path class="cls-1" d="M43.93,91.85a29.47,29.47,0,0,0-3.83-6.2,21.12,21.12,0,0,0-1.8-1.93,4,4,0,0,0-1.84-1,1.91,1.91,0,0,0-1.73.39,4.81,4.81,0,0,0-1.48,2.15,23.63,23.63,0,0,1-1.67,3.48c-.57,1-1.19,1.88-1.79,2.82-.32.49-.63,1-1,1.48a5.1,5.1,0,0,0-.71,1.88,2.64,2.64,0,0,0,.9,2.71,4.14,4.14,0,0,0,3.39.88,9.62,9.62,0,0,0,3-1.13c.14-.08.3-.13.63-.27-.12.32-.15.43-.2.53-.27.55-.56,1.1-.8,1.66a6.85,6.85,0,0,0-.57,2.91,4.73,4.73,0,0,0,.08.79A2,2,0,0,0,37,104.72a6.14,6.14,0,0,0,2.56-.87c.43-.29.87-.6,1.28-.92a9.07,9.07,0,0,0,1.84-2A12.35,12.35,0,0,0,44.74,95a4,4,0,0,0-.5-2.54A6.17,6.17,0,0,1,43.93,91.85Z"/><path class="cls-2" d="M29.28,77.08a2.84,2.84,0,0,0,1.47.52,4.67,4.67,0,0,0,2.85-.71,1.19,1.19,0,0,1,.23-.12,4.06,4.06,0,0,0,1.83-1.71,11.14,11.14,0,0,0,1.5-4.19c.1-.75.23-1.5.32-2.26s.17-1.81.26-2.7c-.06-.69-.13-1.36-.18-2a11.09,11.09,0,0,0-1.1-3.78,15.15,15.15,0,0,0-1.17-2c-.25-.39-.59-.73-.85-1.12a17.48,17.48,0,0,0-1.92-2.4,12.35,12.35,0,0,0-3.08-2.47,6.78,6.78,0,0,0-3.65-.8,2.77,2.77,0,0,0-1.62.61,5.33,5.33,0,0,0-1.36,1.59,8.12,8.12,0,0,0-.76,2.6,20.25,20.25,0,0,0-.17,3.77c0,1,0,2,.12,3s.26,2.09.38,3.14a10.25,10.25,0,0,0,1.81,4.71c.73,1.06,1.49,2.11,2.23,3.16.27.38.51.79.77,1.18A6.27,6.27,0,0,0,29.28,77.08Z"/><path class="cls-2" d="M102.28,60c0-.5,0-1,0-1.5a14.07,14.07,0,0,0-.45-3.75A5,5,0,0,0,100,51.95a2.85,2.85,0,0,0-1.62-.61,6.67,6.67,0,0,0-3.65.81,13.27,13.27,0,0,0-3.89,3.4c-.61.75-1.12,1.58-1.74,2.33A8.51,8.51,0,0,0,88,59.49c-.26.52-.49,1.07-.71,1.61a12.57,12.57,0,0,0-.79,5.8A39.5,39.5,0,0,0,87,71a11.65,11.65,0,0,0,1.56,4.17,4.14,4.14,0,0,0,1.72,1.58c.18.09.36.21.54.29A4,4,0,0,0,95.09,77a7.64,7.64,0,0,0,2.16-2.29c.82-1.25,1.63-2.51,2.55-3.7a9.75,9.75,0,0,0,1.93-4.49A33.61,33.61,0,0,0,102.28,60Z"/><path class="cls-3" d="M123.48,159.42a13.16,13.16,0,0,0-1.87-3.18,18.72,18.72,0,0,0-3.05-3.27,51,51,0,0,0-6.94-4.78c-.64-.36-1.28-.72-1.94-1q-3-1.37-5.92-2.7c-1.07-.48-2.15-.94-3.24-1.37-1.28-.51-2.59-1-3.87-1.46a19.64,19.64,0,0,1-3-1.4c-1-.6-2-1.15-2.94-1.76a11.17,11.17,0,0,1-2.24-1.83,18.7,18.7,0,0,1-3-4.63c-.32-.66-.61-1.33-.89-2a28.31,28.31,0,0,1-1.69-5.54c-.18-.89-.36-1.78-.52-2.68-.25-1.44-.54-2.88-.72-4.34-.35-2.83-.48-5.67-.66-8.51-.07-1.17-.13-2.34-.24-3.51-.16-1.69-.38-3.38-.42-5.08a2.76,2.76,0,0,0-.24-1.1A17.5,17.5,0,0,0,78.79,97a12.9,12.9,0,0,0-5.73-4.77c-.89-.37-1.83-.61-2.74-.94a28,28,0,0,0-6-1.38,13.36,13.36,0,0,0-3.6-.09c-.93.13-1.86.22-2.78.39s-1.95.43-2.91.7-2.19.66-3.27,1a10.36,10.36,0,0,0-1.6.71,13.5,13.5,0,0,0-5.64,5.76,4,4,0,0,0-.65,1.89,39.3,39.3,0,0,1-.36,4.65c-.22,2.22-.33,4.45-.47,6.67s-.25,4.52-.61,6.75-.77,4.45-1.23,6.66a23.78,23.78,0,0,1-.92,3.3,31.07,31.07,0,0,1-2.89,6.11,11.51,11.51,0,0,1-3.16,3.5c-1.23.84-2.54,1.57-3.82,2.34a10.63,10.63,0,0,1-1.32.7c-1.08.46-2.18.88-3.27,1.31s-1.93.7-2.88,1.09c-2,.83-3.95,1.67-5.89,2.56-1.49.68-2.95,1.44-4.41,2.18a15,15,0,0,0-1.67,1C9.6,150,8.24,151,6.88,152a18.41,18.41,0,0,0-4,3.89,12.83,12.83,0,0,0-2.71,5.55,7.17,7.17,0,0,0,.63,4.54,12.44,12.44,0,0,0,2.92,3.83,28.16,28.16,0,0,0,3.51,2.65,60.26,60.26,0,0,0,12.26,5.71c1.33.47,2.66.91,4,1.33s2.91.91,4.39,1.31c1.19.32,2.41.53,3.6.85,1.81.49,3.62,1,5.46,1.4s3.49.81,5.24,1.16c1.44.29,2.9.46,4.34.72a43.93,43.93,0,0,0,6.12.71c1.52.07,3.05.1,4.58.12s3.29,0,4.93,0h2c1.2,0,2.41,0,3.61-.05a14.6,14.6,0,0,1,1.85-.05,28.74,28.74,0,0,0,4.31-.21c1.52-.16,3-.43,4.53-.64,1.72-.24,3.42-.53,5.11-.93s3.15-.71,4.72-1.08c1-.24,2-.5,3-.76s1.76-.46,2.64-.68,1.5-.31,2.23-.52c2.09-.6,4.18-1.19,6.24-1.86,1.53-.5,3-1.15,4.54-1.67a47.84,47.84,0,0,0,6.22-2.69A39.23,39.23,0,0,0,119,171a15.32,15.32,0,0,0,3.7-3.85,9.35,9.35,0,0,0,1-1.94A8,8,0,0,0,123.48,159.42Z"/><path class="cls-4" d="M43.68,123.37a28.21,28.21,0,0,0,4.46,3.28c1.54.91,3.1,1.79,4.69,2.61a24.17,24.17,0,0,0,4.73,1.89c.59.16,1.18.36,1.78.5.94.22,1.89.44,2.84.59s1.75.17,2.62.31a22.45,22.45,0,0,0,5.79,0,37.7,37.7,0,0,0,4.34-.74,13,13,0,0,0,7.58-4.8q.37-.47.68-1-.2-.79-.36-1.59c-.18-.89-.36-1.78-.52-2.68-.25-1.44-.54-2.88-.72-4.34-.35-2.83-.48-5.67-.66-8.51-.07-1.17-.13-2.34-.24-3.51-.16-1.69-.38-3.38-.42-5.08a3.28,3.28,0,0,0,0-.43l-.77-.35c-.84-.35-1.71-.62-2.57-.91a30,30,0,0,0-6.71-1.39A68,68,0,0,0,61.73,97H60.06a54,54,0,0,0-6.42.39,39.08,39.08,0,0,0-5.7,1.13,21,21,0,0,0-4.06,1.53,2,2,0,0,0,0,.23,39.3,39.3,0,0,1-.36,4.65c-.22,2.22-.33,4.45-.47,6.67s-.25,4.52-.61,6.75q-.26,1.61-.56,3.21A23,23,0,0,0,43.68,123.37Z"/><path class="cls-5" d="M100.07,174.26a67.39,67.39,0,0,1-.44-7.55c0-3.5.15-7,.46-10.47q.11-1.18.25-2.36c.18-1.48.35-3,.57-4.45.29-1.93.64-3.85,1.07-5.75l-1.46-.6c-1.28-.51-2.59-1-3.87-1.46l-.31-.12a17.67,17.67,0,0,1-.25,3.23,36.26,36.26,0,0,1-.91,4.39,31.06,31.06,0,0,1-2.41,6.12,33.39,33.39,0,0,1-3.51,5.47A34.5,34.5,0,0,1,79.87,169a33.22,33.22,0,0,1-6,2.8,30.82,30.82,0,0,1-10.43,1.86c-.91,0-1.82,0-2.73,0a25.61,25.61,0,0,1-4.65-.36,33.07,33.07,0,0,1-10.77-3.71A33.82,33.82,0,0,1,37.81,164a34.72,34.72,0,0,1-6.87-9.63,31.69,31.69,0,0,1-2.5-7.39,23.51,23.51,0,0,1-.62-5.44l-2,.78c-1,.37-1.93.7-2.88,1.09l-.79.34q.35,1.58.65,3.17c.28,1.5.56,3,.74,4.52.27,2.3.59,4.6.69,6.92.07,1.67.22,3.34.26,5a80.06,80.06,0,0,1-.14,8.18c-.08,1.08-.22,2.16-.37,3.23-.1.76-.25,1.5-.38,2.25a10.57,10.57,0,0,1-.67,2.3l.51.16c1.46.46,2.91.91,4.39,1.31,1.19.32,2.41.53,3.6.85,1.81.49,3.62,1,5.46,1.4s3.49.81,5.24,1.16c1.44.29,2.9.46,4.34.72a43.93,43.93,0,0,0,6.12.71c1.52.07,3.05.1,4.58.12s3.29,0,4.93,0h2c1.2,0,2.41,0,3.61-.05a14.6,14.6,0,0,1,1.85-.05,28.74,28.74,0,0,0,4.31-.21c1.52-.16,3-.43,4.53-.64,1.72-.24,3.42-.53,5.11-.93s3.15-.71,4.72-1.08c1-.24,2-.5,3-.76s1.76-.46,2.64-.68,1.5-.31,2.23-.52c1.71-.49,3.42-1,5.11-1.5-.07-.17-.14-.34-.2-.51A22.87,22.87,0,0,1,100.07,174.26Z"/><path class="cls-6" d="M36,162.05a34.8,34.8,0,0,1-5.08-7.71,31.13,31.13,0,0,1-1.5-3.69l-6-.25c0,.34.11.67.15,1,.27,2.3.59,4.6.69,6.92.05,1.23.13,2.46.2,3.69Z"/><path class="cls-6" d="M101,178.82a22.86,22.86,0,0,1-1-4.56c-.18-1.55-.3-3.1-.37-4.66q-10.61.13-21.22.18a34.48,34.48,0,0,1-4.58,2,30.82,30.82,0,0,1-10.43,1.86c-.91,0-1.82,0-2.73,0a25.61,25.61,0,0,1-4.65-.36,33,33,0,0,1-10.46-3.55q-10.58-.07-21.17-.22c0,.66-.06,1.32-.11,2-.08,1.08-.22,2.16-.37,3.23-.1.76-.25,1.5-.38,2.25a10.57,10.57,0,0,1-.67,2.3l.51.16q1.49.47,3,.91,36.54-.16,73.09-.54l1.68-.5C101.15,179.16,101.08,179,101,178.82Z"/><path class="cls-6" d="M89.26,160.72c-.27.34-.56.65-.84,1l11.31-.18q.12-2.63.36-5.26.11-1.18.25-2.36c.11-.91.22-1.83.34-2.74-2.06,0-4.11.07-6.17.11a34.47,34.47,0,0,1-1.73,4A33.39,33.39,0,0,1,89.26,160.72Z"/><path class="cls-5" d="M26.75,144.42a29.57,29.57,0,0,0,2.33,9.17,33.33,33.33,0,0,0,3.92,7,35.2,35.2,0,0,0,7.62,7.65,34.17,34.17,0,0,0,11.59,5.57,30.38,30.38,0,0,0,6.06,1c1,.06,2,.09,3,.07.55,0,1.1,0,1.65,0a27.13,27.13,0,0,0,4.65-.24,33.07,33.07,0,0,0,7-1.67A34.83,34.83,0,0,0,83,168.6a36.6,36.6,0,0,0,7-6.46,34.17,34.17,0,0,0,3.41-5,33.52,33.52,0,0,0,2.77-6.36,37.73,37.73,0,0,0,1.19-5c.17-.95.17-1.92.25-2.88,0-.31,0-.62.07-.92l-1-.38-.31-.12a17.66,17.66,0,0,1-.25,3.23,36.27,36.27,0,0,1-.91,4.39,31.06,31.06,0,0,1-2.41,6.12,33.39,33.39,0,0,1-3.51,5.47A34.5,34.5,0,0,1,79.88,169a33.22,33.22,0,0,1-6,2.8,30.82,30.82,0,0,1-10.43,1.86c-.91,0-1.82,0-2.73,0a25.61,25.61,0,0,1-4.65-.36,33.07,33.07,0,0,1-10.77-3.71A33.82,33.82,0,0,1,37.81,164a34.72,34.72,0,0,1-6.87-9.63,31.69,31.69,0,0,1-2.5-7.39,23.5,23.5,0,0,1-.62-5.44l-1.28.51,0,.13C26.63,142.9,26.7,143.66,26.75,144.42Z"/><path class="cls-7" d="M26.21,146.13a29.92,29.92,0,0,0,1.62,6.48,32.59,32.59,0,0,0,1.8,4.11,36,36,0,0,0,9.92,11.75,33.82,33.82,0,0,0,4.73,3.06,36.1,36.1,0,0,0,5.66,2.42,32.6,32.6,0,0,0,9.85,1.67h2.29c.29,0,.59,0,.88,0a29.5,29.5,0,0,0,4.75-.2,32.74,32.74,0,0,0,7.68-1.87,36.5,36.5,0,0,0,5.33-2.5A35,35,0,0,0,86,167.36a35.45,35.45,0,0,0,4-4,35.06,35.06,0,0,0,5-7.62,38,38,0,0,0,1.62-4.09,29.77,29.77,0,0,0,1.3-5.38,27.77,27.77,0,0,0,.36-3.94s0-.07,0-.1l-.67-.25c0,.31,0,.61-.07.92-.08,1-.08,1.94-.25,2.88a37.76,37.76,0,0,1-1.19,5,33.52,33.52,0,0,1-2.77,6.36,34.17,34.17,0,0,1-3.41,5,36.6,36.6,0,0,1-7,6.46A34.83,34.83,0,0,1,74.57,173a33.07,33.07,0,0,1-7,1.67,27.13,27.13,0,0,1-4.65.24c-.55,0-1.1,0-1.65,0-1,0-2,0-3-.07a30.37,30.37,0,0,1-6.06-1,34.17,34.17,0,0,1-11.59-5.57A35.19,35.19,0,0,1,33,160.55a33.33,33.33,0,0,1-3.92-7,29.57,29.57,0,0,1-2.33-9.17c-.05-.76-.12-1.52-.19-2.28l0-.13-.65.25s0,.06,0,.09A26.75,26.75,0,0,0,26.21,146.13Z"/><path d="M27,59.22a14.58,14.58,0,0,0-.93,4.39,12.18,12.18,0,0,0,.12,3.16,9.59,9.59,0,0,0,.61,1.93,1.58,1.58,0,0,1,.14.41.27.27,0,0,1-.13.21.28.28,0,0,1-.25,0,1,1,0,0,1-.28-.32,11.36,11.36,0,0,1-1.21-6.75A13.08,13.08,0,0,1,26.34,58a7.84,7.84,0,0,0-1-1.43c-.2-.25-.43-.49-.62-.74s-.22-.29-.08-.47.26-.14.47,0a8.28,8.28,0,0,1,.73.63,20.15,20.15,0,0,1,3.4,4.59,28,28,0,0,1,3.33,10.33A8.74,8.74,0,0,1,32.62,72a.47.47,0,0,1-.43.47.49.49,0,0,1-.44-.37c-.06-.26-.1-.52-.14-.78a24.6,24.6,0,0,0-.91-3.94,39.6,39.6,0,0,0-3.06-7.3A2.25,2.25,0,0,0,27,59.22Z"/><path d="M97.07,59.2c-.17.25-.31.43-.42.63a37.12,37.12,0,0,0-4,10.85c-.06.32-.09.64-.14,1a3.55,3.55,0,0,1-.11.51.44.44,0,0,1-.48.29.47.47,0,0,1-.37-.43,4.79,4.79,0,0,1,0-.7,28.61,28.61,0,0,1,.84-4.49,26,26,0,0,1,4.13-8.69c.59-.8,1.29-1.52,2-2.26a3.51,3.51,0,0,1,.69-.54.35.35,0,0,1,.31,0,.25.25,0,0,1,0,.39c-.16.21-.33.41-.5.62A11,11,0,0,0,97.83,58l.17.41a12.79,12.79,0,0,1,1.1,6.26,10.73,10.73,0,0,1-1.22,4.29,1.84,1.84,0,0,1-.18.3.27.27,0,0,1-.39.06.39.39,0,0,1-.11-.3,1,1,0,0,1,.14-.32,7.91,7.91,0,0,0,.74-2.88,16.18,16.18,0,0,0-.78-6.16A4,4,0,0,0,97.07,59.2Z"/><path d="M62,137.83a11.63,11.63,0,0,1-4.87-1.23,8.65,8.65,0,0,1-1-.7,1,1,0,0,1-.23-.27c-.14-.22-.29-.46-.12-.73s.33-.18.71,0a12.51,12.51,0,0,0,3.63,1.31,9.11,9.11,0,0,0,3.85,0,12.15,12.15,0,0,0,3.63-1.31l.15-.08a.46.46,0,0,1,.5,0,.49.49,0,0,1,.08.57,2.07,2.07,0,0,1-.76.84,7.25,7.25,0,0,1-1.81.9A13.08,13.08,0,0,1,62,137.83Z"/><path class="cls-3" d="M94.86,49.13a41.85,41.85,0,0,0-.25-4.92c-.21-1.48-.38-3-.67-4.44s-.73-3-1.09-4.44a11.39,11.39,0,0,0-1.21-2.92,23.86,23.86,0,0,0-2.94-3.95,11.86,11.86,0,0,0-1.9-1.83c-.93-.67-1.87-1.33-2.81-2a16.24,16.24,0,0,0-2.72-1.61,32.27,32.27,0,0,0-4.62-1.7A27.69,27.69,0,0,0,72,20.44c-.7-.06-1.4-.13-2.1-.14a28.16,28.16,0,0,0-3.34,0c-.52.06-1.05.08-1.58.09s-1.35-.05-2,0-1.33-.09-2,0a12.28,12.28,0,0,1-1.23,0c-.91,0-1.81-.07-2.72-.08-.47,0-.94,0-1.41,0-1.17.08-2.35.09-3.5.28a30.39,30.39,0,0,0-6.45,1.73A20.74,20.74,0,0,0,42,24c-1,.64-1.94,1.33-2.89,2a13.79,13.79,0,0,0-1.45,1.14,23.61,23.61,0,0,0-4.08,5,10.69,10.69,0,0,0-1.18,2.55,52.56,52.56,0,0,0-1.74,8,49.22,49.22,0,0,0-.41,6.5c0,1.53.11,3.05.17,4.58q.12,3.08.25,6.16c0,.5,0,1,.05,1.5.08,1.61.17,3.23.24,4.84,0,.88,0,1.76.05,2.64.06,1.52.19,3,.22,4.57A48.11,48.11,0,0,0,31.67,79a17.6,17.6,0,0,0,3.16,8.12c.94,1.31,1.88,2.62,2.82,3.93A20.58,20.58,0,0,1,40,95.15c.2.49.42,1,.65,1.44a22.66,22.66,0,0,0,4.58,6.53,26.26,26.26,0,0,0,6.14,4.39A23,23,0,0,0,54,108.65c1.07.41,2.16.75,3.24,1.11a11.53,11.53,0,0,0,3.53.69l2,0a13.43,13.43,0,0,0,4.69-.59c.5-.17,1-.34,1.5-.5a30.74,30.74,0,0,0,3.94-1.5c.85-.4,1.66-.88,2.47-1.35a22.49,22.49,0,0,0,6.19-5.3,22.94,22.94,0,0,0,3.23-5.43,21.53,21.53,0,0,1,2.31-4.24c1.1-1.49,2.16-3,3.22-4.51A16.77,16.77,0,0,0,93,81.44a28.82,28.82,0,0,0,.78-5.13q.1-1.58.16-3.16c.07-1.88.12-3.75.19-5.63,0-.82.07-1.64.11-2.46.08-1.58.16-3.17.23-4.75.06-1.35.09-2.7.15-4,.07-1.7.16-3.4.24-5.1h0C94.81,50.48,94.87,49.8,94.86,49.13Z"/><path class="cls-4" d="M67.83,99.4c-.14-.57-.6-.76-1.08-.91a2.6,2.6,0,0,0-.51-.13c-.46-.05-.93-.08-1.4-.14a21.35,21.35,0,0,0-5.6,0c-.43.06-.88,0-1.31.14a5.78,5.78,0,0,0-1.15.41.84.84,0,0,0-.35.37,1.85,1.85,0,0,0,.31,2.12,3.14,3.14,0,0,0,1.29.89c.8.27,1.61.55,2.43.74a12.08,12.08,0,0,0,1.64.19,13,13,0,0,0,3.86-.85,3.87,3.87,0,0,0,1.51-1A1.87,1.87,0,0,0,67.83,99.4Z"/><path class="cls-8" d="M68.25,77.83c-.38-.72-.75-1.45-1.18-2.15a4.45,4.45,0,0,1-.62-1.9,11.57,11.57,0,0,1,0-1.84c.14-2.2.31-4.39.47-6.59a11.34,11.34,0,0,0-.05-2.63,5.75,5.75,0,0,0-3.09-4.53,3.65,3.65,0,0,0-3.07-.12A5.09,5.09,0,0,0,58,60.61a7.44,7.44,0,0,0-.73,3.85c.14,2.43.3,4.86.49,7.29a6.82,6.82,0,0,1-1,4.54,7,7,0,0,0-.94,1.78c-.44,1.41-.6,3.06.39,4.22A10.57,10.57,0,0,0,58.75,84a2.8,2.8,0,0,1,1.07,1.13,2,2,0,0,0,1.31,1.11A2.63,2.63,0,0,0,64.43,85a1.92,1.92,0,0,1,.76-.83A16.7,16.7,0,0,0,68,82.45c.94-.91.74-2,.61-3.34A3.41,3.41,0,0,0,68.25,77.83Z"/><path d="M51.41,64.27a3.33,3.33,0,0,0-3.28-3.51,3.32,3.32,0,1,0,3.28,3.51Z"/><path d="M79.48,64.22a3.44,3.44,0,0,0-3.39-3.46,3.29,3.29,0,0,0-3.32,3.36A3.44,3.44,0,0,0,76,67.4,3.51,3.51,0,0,0,79.48,64.22Z"/><path d="M51.61,68a1.07,1.07,0,0,0-.45.23c-.47.44-.93.89-1.38,1.35a3.16,3.16,0,0,0-.37.48c-.08.12,0,.31.19.32a1,1,0,0,0,.78-.32c.22-.24.45-.46.67-.69s.58-.58.84-.89a.47.47,0,0,0,0-.39C51.89,68,51.7,68,51.61,68Z"/><path d="M72.89,68.11a.63.63,0,0,0-.41-.12.44.44,0,0,0-.28.15s0,.17,0,.24a.63.63,0,0,0,.14.22c.51.52,1,1.05,1.54,1.54a1.32,1.32,0,0,0,.64.22c.07,0,.17-.11.27-.19a1.6,1.6,0,0,0-.19-.34C74.05,69.26,73.48,68.68,72.89,68.11Z"/><path d="M66.76,74.25a15,15,0,0,0,1.55,3.58l.44.88a3.4,3.4,0,0,1,.37,1,3.59,3.59,0,0,1-.3,2.13,3.86,3.86,0,0,1-1.4,1.66c-.64.39-1.26.62-1.75.92A4.53,4.53,0,0,0,65,85a5.67,5.67,0,0,1-.79.69,5.52,5.52,0,0,1-.94.53,2.62,2.62,0,0,1-2.3,0,5.44,5.44,0,0,1-.94-.53,5.81,5.81,0,0,1-.8-.69,4.24,4.24,0,0,0-.7-.53c-.47-.29-1.14-.5-1.76-.92a4,4,0,0,1-1.39-1.66,3.53,3.53,0,0,1,.07-3.15l.45-.88c.3-.58.65-1.15.91-1.74l.4-.9a3.11,3.11,0,0,0,.19-.45c0-.16,0-.32.07-.49,0,.17,0,.33,0,.5a3.08,3.08,0,0,1-.12.49l-.3.95c-.19.64-.47,1.23-.71,1.85l-.38.91a3,3,0,0,0-.23.86,2.91,2.91,0,0,0,.35,1.7,3.51,3.51,0,0,0,1.19,1.27c.47.31,1.09.47,1.76.84a4.62,4.62,0,0,1,.88.65,4.88,4.88,0,0,0,.7.59,3,3,0,0,0,1.53.6,1.82,1.82,0,0,0,.76-.17,4.54,4.54,0,0,0,.78-.42,4.73,4.73,0,0,0,.69-.6,4.76,4.76,0,0,1,.88-.64c.65-.35,1.28-.57,1.77-.85a3.38,3.38,0,0,0,1.18-1.26,2.9,2.9,0,0,0,.36-1.7A8.42,8.42,0,0,0,67.87,78c-.23-.62-.51-1.22-.69-1.86l-.29-1A1.8,1.8,0,0,1,66.76,74.25Z"/><path class="cls-9" d="M43.9,89.8a9.7,9.7,0,0,0,3-2.65A10,10,0,0,0,49,81.41,11,11,0,0,0,47.67,76a8.61,8.61,0,0,0-9.5-4.29A9.6,9.6,0,0,0,31.45,77q.09,1,.23,2a17.6,17.6,0,0,0,3.16,8.12l2.62,3.65.16,0A8.65,8.65,0,0,0,43.9,89.8Z"/><path class="cls-9" d="M91.18,74.69a10,10,0,0,0-3.33-2.4,8.65,8.65,0,0,0-5.41-.67,8.92,8.92,0,0,0-6.91,6.67,9.86,9.86,0,0,0-.17,4.62,10,10,0,0,0,2.86,5.35A9.27,9.27,0,0,0,88,90.4c.8-1.11,1.58-2.22,2.36-3.34A16.77,16.77,0,0,0,93,81.44q.3-1.21.49-2.45c-.1-.39-.23-.78-.37-1.16A9.22,9.22,0,0,0,91.18,74.69Z"/><path class="cls-1" d="M98.36,51.34a2.9,2.9,0,0,1,1,.23c.1-.79.19-1.57.27-2.36.27-2.89.58-5.78.65-8.69a44.33,44.33,0,0,0-.21-8.26,19.72,19.72,0,0,0-.73-3.17,14.93,14.93,0,0,0-1.77-3.52,18.06,18.06,0,0,0-2.25-2.93,10.21,10.21,0,0,0-2-1.62,11.36,11.36,0,0,0-2.28-1.14,18.31,18.31,0,0,0-3-.82l-2.7-.37a1.11,1.11,0,0,1-.62-.18c0-.08,0-.11.06-.12l.65-.45A12.3,12.3,0,0,0,89,14.49a5.45,5.45,0,0,0,.92-3A2.72,2.72,0,0,0,88.52,9a3.06,3.06,0,0,0-1.83-.52A13.66,13.66,0,0,0,85,8.7,18.6,18.6,0,0,0,81.23,10c-1.79.81-3.57,1.65-5.35,2.48A43.72,43.72,0,0,1,69.09,15a7.17,7.17,0,0,1-.77.13l-.08-.16.26-.33c.51-.61,1-1.2,1.52-1.83s1-1.44,1.56-2.13a11.26,11.26,0,0,0,1.7-3,14.64,14.64,0,0,0,1-4,4.9,4.9,0,0,0-.25-2A1.71,1.71,0,0,0,72.34.42a6.21,6.21,0,0,0-2,.27,20.77,20.77,0,0,0-3.49,1.46c-2.74,1.42-5.32,3.11-8,4.68-1.26.75-2.47,1.59-3.72,2.35-1.94,1.17-3.89,2.3-5.84,3.44a68,68,0,0,1-7.05,3.61c-2.45,1.07-4.91,2.1-7.43,3a19,19,0,0,0-3.62,1.59A11.63,11.63,0,0,0,28,23.64c-.64.84-1.24,1.71-1.81,2.6a12.5,12.5,0,0,0-1.48,3.28,23.09,23.09,0,0,0-.89,6.42c0,3.4.13,6.8.45,10.19q.26,2.72.56,5.43a2.91,2.91,0,0,1,1-.21,6.78,6.78,0,0,1,3.65.8,8,8,0,0,1,.94.63s.24-2.81.26-4.16c0-.79,0-1.59.09-2.38.14-1.67.31-3.33.47-5a27.73,27.73,0,0,1,.87-4.74A23.48,23.48,0,0,1,33.88,32a11.91,11.91,0,0,1,3-3.65c.49-.41,1-.86,1.49-1.23a3.75,3.75,0,0,1,1.36-.83c.12.28.23.55.34.81.47,1.07.93,2.16,1.43,3.21a26.71,26.71,0,0,0,2.61,4.28,12.55,12.55,0,0,0,3.1,3.1,4.57,4.57,0,0,0,1.69.71,2.28,2.28,0,0,0,2-.55,3.85,3.85,0,0,0,1.2-1.8,7.58,7.58,0,0,0,.44-1.79c0-.61.08-1.23.12-1.84,0-.13-.07-.3.15-.39a1.92,1.92,0,0,1,.2.26,19.58,19.58,0,0,0,2.3,3.22A14,14,0,0,0,60,39.29a4.73,4.73,0,0,0,4.17,0,11.59,11.59,0,0,0,3.16-2.21,21.78,21.78,0,0,0,3.59-4.44c.13-.21.19-.49.52-.58l0,.55a18.94,18.94,0,0,0,.16,1.92,6.08,6.08,0,0,0,1.08,2.75,2.57,2.57,0,0,0,2.86,1A6.05,6.05,0,0,0,78,36.93,16.71,16.71,0,0,0,80.49,34a32.67,32.67,0,0,0,3.39-6.35l.58-1.42a7.14,7.14,0,0,1,.71.43c.85.67,1.73,1.32,2.53,2a12,12,0,0,1,2,2.33,21.21,21.21,0,0,1,1.44,2.81,23,23,0,0,1,1.62,5.74c.18,1.1.25,2.21.38,3.32.21,1.9.36,3.8.38,5.71a9.84,9.84,0,0,0,1.24,3.55A6.48,6.48,0,0,1,98.36,51.34Z"/><path d="M58,98a15.76,15.76,0,0,1,2.2-.25c.71-.05,1.41-.07,2.11-.07s1.4,0,2.11.06a14.92,14.92,0,0,1,2.2.26,6.21,6.21,0,0,1-2.09.9,9.36,9.36,0,0,1-4.44,0A6.18,6.18,0,0,1,58,98Z"/><path class="cls-10" d="M96.69,27.17c-.34-1.06-.68-2.12-1-3.18-.5-1.59-1-3.18-1.48-4.78l-.35-1.11h0a13.23,13.23,0,0,0,.46-6.55,14.24,14.24,0,0,0-1.82-4.83,14,14,0,0,0-2.07-2.61A13.63,13.63,0,0,0,85.12.78,12.6,12.6,0,0,0,80.54,0h-.79a12,12,0,0,0-4.28.9,13.86,13.86,0,0,0-5.93,4.41A13.52,13.52,0,0,0,67,10.78a13.75,13.75,0,0,0-5.1-1,14,14,0,0,0-4.68.81A13.52,13.52,0,0,0,54.34,5,13.9,13.9,0,0,0,39.87.54a13.49,13.49,0,0,0-5.3,2.83A13.82,13.82,0,0,0,31,7.91a13.29,13.29,0,0,0-.88,9.67,14.25,14.25,0,0,0,.69,1.9q-.4,1.32-.81,2.64c-.56,1.79-1.14,3.56-1.75,5.48a7.19,7.19,0,0,0,2.47,1,.89.89,0,0,0,1-.59c.3-.6.61-1.2.86-1.83.37-.89.73-1.78,1.05-2.69h0a15.2,15.2,0,0,0,3.19,2.37A13.59,13.59,0,0,0,42,27.45a12.61,12.61,0,0,0,3.16,0,15.09,15.09,0,0,0,3.89-1.06,13.94,13.94,0,0,0,7.07-6.68,14.28,14.28,0,0,0,1.43-5.85c0-.15,0-.29,0-.44a15.23,15.23,0,0,1,4.32-.73,15.7,15.7,0,0,1,4.77.87,13.08,13.08,0,0,0,.72,4.54,13,13,0,0,0,1.35,2.85,14.33,14.33,0,0,0,3.53,3.76,14.07,14.07,0,0,0,7.48,2.8A13.94,13.94,0,0,0,91.24,22.7h0c.15.46.32.92.46,1.39a20.79,20.79,0,0,0,1.18,2.83c.17.37.33.75.53,1.11a.87.87,0,0,0,1.09.53,6.12,6.12,0,0,0,2.3-1C96.75,27.39,96.73,27.28,96.69,27.17ZM54,20.23a12.07,12.07,0,0,1-7.86,5.49,24,24,0,0,1-2.52.32,13.25,13.25,0,0,1-9.48-4.44L34,21.38l0,0-.17-.22,0,0-.16-.22,0-.05-.15-.22,0,0-.15-.24h0q-.25-.4-.48-.83h0l-.12-.22,0-.09-.1-.21-.05-.12-.09-.2-.06-.13-.08-.19-.06-.14L32.05,18,32,17.8l-.07-.19-.05-.16c-.06-.18-.12-.35-.17-.53h0v0a11,11,0,0,1-.33-5,11.84,11.84,0,0,1,3.8-7.16,12.08,12.08,0,0,1,3.43-2.25,11.74,11.74,0,0,1,5.94-.9A12.4,12.4,0,0,1,54,7.54a11.58,11.58,0,0,1,1.84,5.9A11.74,11.74,0,0,1,54,20.23Zm38.9-6.51A12.73,12.73,0,0,1,92.46,17a11.84,11.84,0,0,1-.39,1.15h0l-.09.21v0l-.09.2v0l-.09.2h0q-.2.42-.43.83l0,0-.1.17,0,.06-.1.16,0,.06-.1.16,0,.05-.11.17h0a13.71,13.71,0,0,1-1.26,1.57,11.83,11.83,0,0,1-3.68,2.68,12.31,12.31,0,0,1-13.5-1.86,11.31,11.31,0,0,1-2.1-2.47,11.83,11.83,0,0,1-1.75-4.57,11.54,11.54,0,0,1,0-3.68A12.58,12.58,0,0,1,78.1,1.86a11.72,11.72,0,0,1,5.59,0,11.45,11.45,0,0,1,5.07,2.66,14,14,0,0,1,2.48,3,11.84,11.84,0,0,1,1.35,3.41A10.38,10.38,0,0,1,92.92,13.72Z"/><g class="cls-11"><path class="cls-12" d="M54,7.54a12.4,12.4,0,0,0-9.43-5.92,11.74,11.74,0,0,0-5.94.9,12.08,12.08,0,0,0-3.43,2.25,11.84,11.84,0,0,0-3.8,7.16,11,11,0,0,0,.33,5,12.19,12.19,0,0,0,7.9,8.37,12.5,12.5,0,0,0,4.06.78,24,24,0,0,0,2.52-.32A12.07,12.07,0,0,0,54,20.23a11.74,11.74,0,0,0,1.77-6.79A11.58,11.58,0,0,0,54,7.54Z"/><path class="cls-12" d="M92.6,10.93a11.84,11.84,0,0,0-1.35-3.41,14,14,0,0,0-2.48-3A11.45,11.45,0,0,0,83.69,1.9a11.72,11.72,0,0,0-5.59,0,12.58,12.58,0,0,0-9.61,10.32,11.54,11.54,0,0,0,0,3.68,11.83,11.83,0,0,0,1.75,4.57,11.31,11.31,0,0,0,2.1,2.47,12.31,12.31,0,0,0,13.5,1.86,11.83,11.83,0,0,0,3.68-2.68,12.22,12.22,0,0,0,3.38-8.36A10.38,10.38,0,0,0,92.6,10.93Z"/></g><path class="cls-13" d="M34.41,13.12A28,28,0,0,1,37.83,8.7,27.7,27.7,0,0,1,42,4.94a27.71,27.71,0,0,1-3.42,4.43A28,28,0,0,1,34.41,13.12Z"/><path class="cls-13" d="M34.41,9.28a10.13,10.13,0,0,1,1.88-2.76A10,10,0,0,1,38.9,4.43,10,10,0,0,1,37,7.19,10.13,10.13,0,0,1,34.41,9.28Z"/><path class="cls-13" d="M72.76,13.12A28,28,0,0,1,76.18,8.7a27.7,27.7,0,0,1,4.14-3.76A27.71,27.71,0,0,1,76.9,9.37,28,28,0,0,1,72.76,13.12Z"/><path class="cls-13" d="M72.76,9.28a10.13,10.13,0,0,1,1.88-2.76,10,10,0,0,1,2.61-2.09,10,10,0,0,1-1.88,2.76A10.13,10.13,0,0,1,72.76,9.28Z"/><path class="cls-1" d="M77.09,59.7a33.15,33.15,0,0,0,4.09-2.24,14.32,14.32,0,0,1,1.52-.88A10.75,10.75,0,0,1,88.1,55.2c.05,0,.11,0,.22-.09a1.14,1.14,0,0,0-.41-.69,17.3,17.3,0,0,0-3-2.35,9.59,9.59,0,0,0-6-1.45,15.1,15.1,0,0,0-2.59.45,19.09,19.09,0,0,0-2.2.63,16.63,16.63,0,0,0-3.49,1.85c-.84.58-1.7,1.15-2.53,1.76-.59.43-1.15.9-1.72,1.37a.37.37,0,0,0,0,.55c.33.41.65.83,1,1.21a7.69,7.69,0,0,0,3,1.88,8.3,8.3,0,0,0,4.41.26A9.58,9.58,0,0,0,77.09,59.7Z"/><path class="cls-1" d="M57.72,57.64A14.85,14.85,0,0,0,56.25,56c-.91-.78-1.8-1.6-2.73-2.35a15.09,15.09,0,0,0-3.7-2.36,25.06,25.06,0,0,0-3.4-1.19,9.83,9.83,0,0,0-5.71.2,12.4,12.4,0,0,0-2.82,1.43c-.56.37-1.1.78-1.63,1.19-.15.12-.32.26-.24.53a.8.8,0,0,0,.23.09,10.32,10.32,0,0,1,5.41,2.14C43.43,57,45.13,58.33,47,59.46a8.29,8.29,0,0,0,4,1.26,8.1,8.1,0,0,0,4.77-1.24A7.94,7.94,0,0,0,57.72,57.64Z"/><path class="cls-14" d="M51.75,94a8.38,8.38,0,0,0,1.33.1c1.33,0,19.12.07,20.29-.1a1,1,0,0,0,.71-1.64,2.45,2.45,0,0,0-.57-.55,20.17,20.17,0,0,0-3.07-1.77,21.73,21.73,0,0,0-7.67-2.17,20.42,20.42,0,0,0-7.24,1.75,21.75,21.75,0,0,0-3.87,2.14,2.88,2.88,0,0,0-.59.53A1,1,0,0,0,51.75,94Z"/><path class="cls-9" d="M59,94.14a7,7,0,0,1,4.45,2.49c1.58,2.17,3.46,3.68,7,3.12s2.1-4.79-.17-6.54-5.39-.81-5.39-.81S60.65,91.26,59,94.14Z"/><path d="M68.65,96.3c.19.44.84.06.65-.38a8,8,0,0,0-3.74-3.68,6.3,6.3,0,0,0-.72.15,7.5,7.5,0,0,0-1.09-.18C65.81,93.05,67.79,94.31,68.65,96.3Z"/><path class="cls-13" d="M70.52,90.11l-.08,0a21.74,21.74,0,0,0-7.67-2.17,20.43,20.43,0,0,0-7.24,1.75l-1,.46c2.12.18,4.91.25,8,.25S68.41,90.29,70.52,90.11Z"/></g></g></svg>